<svg width="40" height="40" viewBox="0 0 40 40" fill="none" xmlns="http://www.w3.org/2000/svg">
<circle cx="20" cy="20" r="20" fill="#E5E5E5"/>
<path d="M32 14.0086C31.1498 14.3538 30.2423 14.584 29.2887 14.6886C30.2652 14.1551 31.012 13.3182 31.3566 12.3138C30.449 12.8055 29.4381 13.1612 28.3581 13.36C27.4965 12.5231 26.2787 12 24.9116 12C22.3037 12 20.2013 13.9249 20.2013 16.2892C20.2013 16.624 20.2473 16.9483 20.3277 17.2726C16.4101 17.0948 12.9406 15.3895 10.6084 12.7846C10.2063 13.4228 9.96503 14.1551 9.96503 14.9397C9.96503 16.4252 10.7922 17.7434 12.0674 18.5175C11.2977 18.4966 10.5624 18.2978 9.93057 17.984C9.93057 18.0049 9.93057 18.0154 9.93057 18.0363C9.93057 20.1182 11.5504 21.8548 13.7103 22.2418C13.3197 22.336 12.8946 22.3883 12.4695 22.3883C12.1708 22.3883 11.8721 22.3569 11.5849 22.3151C12.1823 24.0203 13.9286 25.2652 15.985 25.2966C14.3766 26.4474 12.3432 27.1378 10.1259 27.1378C9.74675 27.1378 9.36763 27.1169 9 27.0751C11.0909 28.2886 13.5609 29 16.2263 29C24.9001 29 29.6334 22.4615 29.6334 16.7914C29.6334 16.6031 29.6334 16.4252 29.6219 16.2369C30.5639 15.6302 31.3681 14.8769 32 14.0086Z" fill="#BFBFBF"/>
</svg>
