<svg width="40" height="40" viewBox="0 0 40 40" fill="none" xmlns="http://www.w3.org/2000/svg">
<circle cx="20" cy="20" r="20" fill="#5783C6"/>
<path fill-rule="evenodd" clip-rule="evenodd" d="M19.25 27.942H20.6267C20.6267 27.942 21.0421 27.8928 21.2543 27.6491C21.4494 27.4254 21.4429 27.0046 21.4429 27.0046C21.4429 27.0046 21.4162 25.0365 22.2722 24.747C23.1281 24.4576 24.1995 26.6478 25.3494 27.4902C26.2176 28.1269 26.8775 27.9869 26.8775 27.9869L29.9483 27.9412C29.9483 27.9412 31.559 27.8366 30.7938 26.4879C30.7314 26.3782 30.35 25.4909 28.5101 23.6688C26.5844 21.762 26.8427 22.0704 29.162 18.7717C30.5743 16.763 31.1395 15.5361 30.963 15.0117C30.7946 14.5115 29.7556 14.6437 29.7556 14.6437L26.2977 14.6661C26.1443 14.6474 25.989 14.6775 25.8515 14.7525C25.6661 14.8709 25.5462 15.1482 25.5462 15.1482C25.1884 16.1382 24.7621 17.0984 24.2708 18.0209C22.7322 20.8107 22.1151 20.9585 21.8632 20.7857C21.2777 20.3822 21.4243 19.164 21.4243 18.2983C21.4243 15.5949 21.809 14.4674 20.6761 14.1762C20.3003 14.0795 20.0234 14.0155 19.0621 14.0034C17.828 13.9896 16.7841 14.0034 16.193 14.3162C15.7994 14.5218 15.4957 14.9797 15.6812 15.0074C15.9095 15.0402 16.427 15.156 16.7015 15.5543C17.0562 16.0727 17.0433 17.2235 17.0433 17.2235C17.0433 17.2235 17.2473 20.4055 16.5679 20.8012C16.1023 21.0725 15.4625 20.5187 14.0899 17.9881C13.623 17.1085 13.2097 16.1977 12.8525 15.2614C12.7892 15.1023 12.6916 14.9613 12.5675 14.8501C12.4067 14.7363 12.226 14.6584 12.0363 14.6212L8.75007 14.6445C8.75007 14.6445 8.2569 14.6592 8.0755 14.8882C7.91354 15.0921 8.06255 15.5128 8.06255 15.5128C8.06255 15.5128 10.6353 21.9339 13.5482 25.1704C16.2205 28.1373 19.2524 27.9429 19.2524 27.9429L19.25 27.942Z" fill="white"/>
</svg>
